<svg xmlns="http://www.w3.org/2000/svg" width="36" height="36" viewBox="0 0 36 36">
  <g id="Group_8" data-name="Group 8" transform="translate(-324 -217)">
    <path id="Exclusion_1" data-name="Exclusion 1" d="M10.153,22A10.154,10.154,0,0,1,3.87,3.869a10.048,10.048,0,0,0-2.178,6.284A10.165,10.165,0,0,0,11.846,20.308,10.05,10.05,0,0,0,18.13,18.13,10.1,10.1,0,0,1,10.153,22Zm7.983-3.875h0a10.047,10.047,0,0,0,2.173-6.278A10.166,10.166,0,0,0,10.153,1.692,10.049,10.049,0,0,0,3.87,3.869,10.154,10.154,0,1,1,18.136,18.125Z" transform="translate(331 224)" stroke="#fff" stroke-linecap="square" stroke-width="2"/>
    <path id="Exclusion_2" data-name="Exclusion 2" d="M15.785,34A15.786,15.786,0,0,1,5.9,5.9,15.786,15.786,0,0,0,28.1,28.1,15.723,15.723,0,0,1,15.785,34ZM28.1,28.089l0,0A15.786,15.786,0,0,0,5.9,5.9,15.786,15.786,0,1,1,28.1,28.089Z" transform="translate(325 218)" stroke="#fff" stroke-linecap="square" stroke-width="2"/>
  </g>
</svg>
